{
    "asset" : {
        "generator" : "Khronos glTF Blender I/O v1.7.33",
        "version" : "2.0"
    },
    "scene" : 1,
    "scenes" : [
        {
            "name" : "Scene",
            "nodes" : [
                0,
                1,
                2,
                3,
                4,
                5,
                6,
                7,
                8
            ]
        },
        {
            "name" : "Scene.001",
            "nodes" : [
                9,
                10
            ]
        }
    ],
    "nodes" : [
        {
            "mesh" : 0,
            "name" : "Vert.003",
            "translation" : [
                0,
                0,
                -0.8774793148040771
            ]
        },
        {
            "name" : "Vert.001"
        },
        {
            "name" : "Vert.002",
            "translation" : [
                0,
                0,
                -0.8774793148040771
            ]
        },
        {
            "mesh" : 1,
            "name" : "Vert.004",
            "translation" : [
                0,
                0,
                -0.8774793148040771
            ]
        },
        {
            "mesh" : 2,
            "name" : "Vert.005",
            "translation" : [
                -1.556051254272461,
                0.2500000298023224,
                0
            ]
        },
        {
            "mesh" : 3,
            "name" : "Vert.006",
            "translation" : [
                -1.556051254272461,
                0.2500000298023224,
                0
            ]
        },
        {
            "mesh" : 4,
            "name" : "Vert.007"
        },
        {
            "mesh" : 5,
            "name" : "Text",
            "scale" : [
                0.8278889060020447,
                0.8278889060020447,
                0.8278889060020447
            ]
        },
        {
            "name" : "Empty"
        },
        {
            "mesh" : 6,
            "name" : "Vert.014"
        },
        {
            "name" : "Empty.001"
        }
    ],
    "materials" : [
        {
            "doubleSided" : true,
            "name" : "Material.001",
            "pbrMetallicRoughness" : {
                "baseColorFactor" : [
                    0.8000000715255737,
                    0.020995253697037697,
                    0.09617297351360321,
                    1
                ],
                "metallicFactor" : 0
            }
        },
        {
            "doubleSided" : true,
            "name" : "Material.002",
            "pbrMetallicRoughness" : {
                "baseColorFactor" : [
                    0.5711252093315125,
                    0.06124596670269966,
                    0.03433983027935028,
                    1
                ],
                "metallicFactor" : 0
            }
        }
    ],
    "meshes" : [
        {
            "name" : "Vert.003",
            "primitives" : [
                {
                    "attributes" : {
                        "POSITION" : 0,
                        "NORMAL" : 1
                    },
                    "indices" : 2
                }
            ]
        },
        {
            "name" : "Vert.006",
            "primitives" : [
                {
                    "attributes" : {
                        "POSITION" : 3,
                        "NORMAL" : 4
                    },
                    "indices" : 5
                }
            ]
        },
        {
            "name" : "Vert.007",
            "primitives" : [
                {
                    "attributes" : {
                        "POSITION" : 6,
                        "NORMAL" : 7
                    },
                    "indices" : 8,
                    "material" : 0
                }
            ]
        },
        {
            "name" : "Vert.008",
            "primitives" : [
                {
                    "attributes" : {
                        "POSITION" : 9,
                        "NORMAL" : 10
                    },
                    "indices" : 11,
                    "material" : 0
                }
            ]
        },
        {
            "name" : "Vert.009",
            "primitives" : [
                {
                    "attributes" : {
                        "POSITION" : 12,
                        "NORMAL" : 13,
                        "TEXCOORD_0" : 14
                    },
                    "indices" : 15,
                    "material" : 1
                }
            ]
        },
        {
            "name" : "Text",
            "primitives" : [
                {
                    "attributes" : {
                        "POSITION" : 16,
                        "NORMAL" : 17,
                        "TEXCOORD_0" : 18
                    },
                    "indices" : 19,
                    "material" : 1
                }
            ]
        },
        {
            "name" : "Vert.016",
            "primitives" : [
                {
                    "attributes" : {
                        "POSITION" : 20,
                        "NORMAL" : 21,
                        "TEXCOORD_0" : 22
                    },
                    "indices" : 15,
                    "material" : 1
                }
            ]
        }
    ],
    "accessors" : [
        {
            "bufferView" : 0,
            "componentType" : 5126,
            "count" : 26,
            "max" : [
                0.8944358229637146,
                0.25,
                1.2229374647140503
            ],
            "min" : [
                -1.8052347898483276,
                0.25,
                -0.22847804427146912
            ],
            "type" : "VEC3"
        },
        {
            "bufferView" : 1,
            "componentType" : 5126,
            "count" : 26,
            "type" : "VEC3"
        },
        {
            "bufferView" : 2,
            "componentType" : 5123,
            "count" : 54,
            "type" : "SCALAR"
        },
        {
            "bufferView" : 3,
            "componentType" : 5126,
            "count" : 391,
            "max" : [
                0.0001346208155155182,
                0.2500000298023224,
                0.8774793148040771
            ],
            "min" : [
                -1.7892149686813354,
                0.25,
                -0.21940989792346954
            ],
            "type" : "VEC3"
        },
        {
            "bufferView" : 4,
            "componentType" : 5126,
            "count" : 391,
            "type" : "VEC3"
        },
        {
            "bufferView" : 5,
            "componentType" : 5123,
            "count" : 624,
            "type" : "SCALAR"
        },
        {
            "bufferView" : 6,
            "componentType" : 5126,
            "count" : 736,
            "max" : [
                3.345266342163086,
                0,
                0
            ],
            "min" : [
                -0.2331637144088745,
                -2.9802322387695312e-08,
                -1.0968892574310303
            ],
            "type" : "VEC3"
        },
        {
            "bufferView" : 7,
            "componentType" : 5126,
            "count" : 736,
            "type" : "VEC3"
        },
        {
            "bufferView" : 8,
            "componentType" : 5123,
            "count" : 1248,
            "type" : "SCALAR"
        },
        {
            "bufferView" : 9,
            "componentType" : 5126,
            "count" : 1466,
            "max" : [
                3.345266342163086,
                0,
                1.0968892574310303
            ],
            "min" : [
                -0.2331637144088745,
                -2.9802322387695312e-08,
                -1.0968892574310303
            ],
            "type" : "VEC3"
        },
        {
            "bufferView" : 10,
            "componentType" : 5126,
            "count" : 1466,
            "type" : "VEC3"
        },
        {
            "bufferView" : 11,
            "componentType" : 5123,
            "count" : 2496,
            "type" : "SCALAR"
        },
        {
            "bufferView" : 12,
            "componentType" : 5126,
            "count" : 5764,
            "max" : [
                1.7892162799835205,
                0.005024475511163473,
                1.0968892574310303
            ],
            "min" : [
                -1.78921377658844,
                -0.004975554998964071,
                -1.0968892574310303
            ],
            "type" : "VEC3"
        },
        {
            "bufferView" : 13,
            "componentType" : 5126,
            "count" : 5764,
            "type" : "VEC3"
        },
        {
            "bufferView" : 14,
            "componentType" : 5126,
            "count" : 5764,
            "type" : "VEC2"
        },
        {
            "bufferView" : 15,
            "componentType" : 5123,
            "count" : 8736,
            "type" : "SCALAR"
        },
        {
            "bufferView" : 16,
            "componentType" : 5126,
            "count" : 2534,
            "max" : [
                1.2109999656677246,
                0.009999999776482582,
                0.34550002217292786
            ],
            "min" : [
                -1.2110000848770142,
                -0.009999999776482582,
                -0.34550002217292786
            ],
            "type" : "VEC3"
        },
        {
            "bufferView" : 17,
            "componentType" : 5126,
            "count" : 2534,
            "type" : "VEC3"
        },
        {
            "bufferView" : 18,
            "componentType" : 5126,
            "count" : 2534,
            "type" : "VEC2"
        },
        {
            "bufferView" : 19,
            "componentType" : 5123,
            "count" : 4584,
            "type" : "SCALAR"
        },
        {
            "bufferView" : 20,
            "componentType" : 5126,
            "count" : 5764,
            "max" : [
                1.7892162799835205,
                0.005024475511163473,
                1.0968892574310303
            ],
            "min" : [
                -1.78921377658844,
                -0.004975554998964071,
                -1.0968892574310303
            ],
            "type" : "VEC3"
        },
        {
            "bufferView" : 21,
            "componentType" : 5126,
            "count" : 5764,
            "type" : "VEC3"
        },
        {
            "bufferView" : 22,
            "componentType" : 5126,
            "count" : 5764,
            "type" : "VEC2"
        }
    ],
    "bufferViews" : [
        {
            "buffer" : 0,
            "byteLength" : 312,
            "byteOffset" : 0
        },
        {
            "buffer" : 0,
            "byteLength" : 312,
            "byteOffset" : 312
        },
        {
            "buffer" : 0,
            "byteLength" : 108,
            "byteOffset" : 624
        },
        {
            "buffer" : 0,
            "byteLength" : 4692,
            "byteOffset" : 732
        },
        {
            "buffer" : 0,
            "byteLength" : 4692,
            "byteOffset" : 5424
        },
        {
            "buffer" : 0,
            "byteLength" : 1248,
            "byteOffset" : 10116
        },
        {
            "buffer" : 0,
            "byteLength" : 8832,
            "byteOffset" : 11364
        },
        {
            "buffer" : 0,
            "byteLength" : 8832,
            "byteOffset" : 20196
        },
        {
            "buffer" : 0,
            "byteLength" : 2496,
            "byteOffset" : 29028
        },
        {
            "buffer" : 0,
            "byteLength" : 17592,
            "byteOffset" : 31524
        },
        {
            "buffer" : 0,
            "byteLength" : 17592,
            "byteOffset" : 49116
        },
        {
            "buffer" : 0,
            "byteLength" : 4992,
            "byteOffset" : 66708
        },
        {
            "buffer" : 0,
            "byteLength" : 69168,
            "byteOffset" : 71700
        },
        {
            "buffer" : 0,
            "byteLength" : 69168,
            "byteOffset" : 140868
        },
        {
            "buffer" : 0,
            "byteLength" : 46112,
            "byteOffset" : 210036
        },
        {
            "buffer" : 0,
            "byteLength" : 17472,
            "byteOffset" : 256148
        },
        {
            "buffer" : 0,
            "byteLength" : 30408,
            "byteOffset" : 273620
        },
        {
            "buffer" : 0,
            "byteLength" : 30408,
            "byteOffset" : 304028
        },
        {
            "buffer" : 0,
            "byteLength" : 20272,
            "byteOffset" : 334436
        },
        {
            "buffer" : 0,
            "byteLength" : 9168,
            "byteOffset" : 354708
        },
        {
            "buffer" : 0,
            "byteLength" : 69168,
            "byteOffset" : 363876
        },
        {
            "buffer" : 0,
            "byteLength" : 69168,
            "byteOffset" : 433044
        },
        {
            "buffer" : 0,
            "byteLength" : 46112,
            "byteOffset" : 502212
        }
    ],
    "buffers" : [
        {
            "byteLength" : 548324,
            "uri" : "data:application/octet-stream;base64,"
        }
    ]
}
